<mxfile host="app.diagrams.net" modified="2024-02-24T23:15:11.531Z" agent="Mozilla/5.0 (Windows NT 10.0; Win64; x64) AppleWebKit/537.36 (KHTML, like Gecko) Chrome/121.0.0.0 Safari/537.36" version="23.1.5" etag="KRiSZmCereXZh_bYyGpd" type="github">
  <diagram name="PÃ¡gina-1" id="JONo96uGlKw4wrC4DadE">
    <mxGraphModel>
      <root>
        <mxCell id="0" />
        <mxCell id="1" parent="0" />
      </root>
    </mxGraphModel>
  </diagram>
</mxfile>
